<svg xmlns="http://www.w3.org/2000/svg" width="512" height="512" viewBox="0 0 512 512">
  <defs>
    <clipPath id="roundedCorners">
      <rect x="0" y="0" width="512" height="512" rx="96" ry="96"/>
    </clipPath>
    <radialGradient id="gridFade" cx="50%" cy="50%" r="65%">
      <stop offset="0%" stop-color="white" stop-opacity="1"/>
      <stop offset="55%" stop-color="white" stop-opacity="1"/>
      <stop offset="85%" stop-color="white" stop-opacity="0.3"/>
      <stop offset="100%" stop-color="white" stop-opacity="0"/>
    </radialGradient>
    <mask id="gridMask"><rect x="0" y="0" width="512" height="512" fill="url(#gridFade)"/></mask>
    <filter id="dropShadow" x="-50%" y="-50%" width="200%" height="200%">
      <feGaussianBlur in="SourceAlpha" stdDeviation="5"/>
      <feOffset dx="2" dy="5" result="offsetblur"/>
      <feComponentTransfer><feFuncA type="linear" slope="0.3"/></feComponentTransfer>
      <feMerge><feMergeNode/><feMergeNode in="SourceGraphic"/></feMerge>
    </filter>
  </defs>
  <g clip-path="url(#roundedCorners)">
    <rect x="0" y="0" width="512" height="512" fill="#151535"/>
    <g mask="url(#gridMask)">
      <rect x="0" y="0" width="102.4" height="102.4" fill="#ffffff" opacity="0.10"/>
      <rect x="102.4" y="0" width="102.4" height="102.4" fill="#ffffff" opacity="0.22"/>
      <rect x="102.4" y="102.4" width="102.4" height="102.4" fill="#ffffff" opacity="0.15"/>
      <rect x="307.2" y="102.4" width="102.4" height="102.4" fill="#ffffff" opacity="0.28"/>
      <rect x="0" y="204.8" width="102.4" height="102.4" fill="#ffffff" opacity="0.18"/>
      <rect x="204.8" y="204.8" width="102.4" height="102.4" fill="#ffffff" opacity="0.12"/>
      <rect x="409.6" y="204.8" width="102.4" height="102.4" fill="#ffffff" opacity="0.25"/>
      <rect x="102.4" y="307.2" width="102.4" height="102.4" fill="#ffffff" opacity="0.20"/>
      <rect x="307.2" y="307.2" width="102.4" height="102.4" fill="#ffffff" opacity="0.14"/>
      <rect x="204.8" y="409.6" width="102.4" height="102.4" fill="#ffffff" opacity="0.16"/>
      <rect x="409.6" y="409.6" width="102.4" height="102.4" fill="#ffffff" opacity="0.11"/>
      <line x1="0" y1="0" x2="512" y2="0" stroke="#ffffff" stroke-opacity="0.25" stroke-width="1.5"/>
      <line x1="0" y1="102.4" x2="512" y2="102.4" stroke="#ffffff" stroke-opacity="0.20" stroke-width="1"/>
      <line x1="0" y1="204.8" x2="512" y2="204.8" stroke="#ffffff" stroke-opacity="0.15" stroke-width="1"/>
      <line x1="0" y1="307.2" x2="512" y2="307.2" stroke="#ffffff" stroke-opacity="0.12" stroke-width="1"/>
      <line x1="0" y1="409.6" x2="512" y2="409.6" stroke="#ffffff" stroke-opacity="0.10" stroke-width="1"/>
      <line x1="512" y1="0" x2="512" y2="512" stroke="#ffffff" stroke-opacity="0.25" stroke-width="1.5"/>
      <line x1="409.6" y1="0" x2="409.6" y2="512" stroke="#ffffff" stroke-opacity="0.20" stroke-width="1"/>
      <line x1="307.2" y1="0" x2="307.2" y2="512" stroke="#ffffff" stroke-opacity="0.15" stroke-width="1"/>
      <line x1="204.8" y1="0" x2="204.8" y2="512" stroke="#ffffff" stroke-opacity="0.12" stroke-width="1"/>
      <line x1="102.4" y1="0" x2="102.4" y2="512" stroke="#ffffff" stroke-opacity="0.10" stroke-width="1"/>
    </g>
    <g transform="translate(215, 275) rotate(45) scale(7.2)" filter="url(#dropShadow)">
      <rect x="-5" y="-32" width="10" height="10" fill="#ffffff" rx="2"/>
      <rect x="-5.5" y="-21.25" width="11" height="5" fill="#ffffff" rx="0.5"/>
      <rect x="-5" y="-15.5" width="10" height="31" fill="#ffffff" rx="1"/>
      <polygon points="-5,16.25 5,16.25 0,26.25" fill="#ffffff"/>
    </g>
    <g filter="url(#dropShadow)">
      <rect x="72" y="410" width="189" height="21" fill="#ffffff" rx="10.5"/>
      <rect x="267" y="410" width="72" height="21" fill="#ffffff" rx="10.5"/>
      <rect x="345" y="410" width="72" height="21" fill="#ffffff" rx="10.5"/>
    </g>
    <path d="M 381,338 L 389,363 L 415,363 L 394,378 L 402,403 L 381,388 L 360,403 L 368,378 L 347,363 L 373,363 Z" fill="#ffffff"/>
  </g>
  <rect x="0.5" y="0.5" width="511" height="511" rx="96" ry="96" fill="none" stroke="#ffffff" stroke-opacity="0.06" stroke-width="1"/>
</svg>